<svg xmlns="http://www.w3.org/2000/svg" viewBox="0 0 560 130" width="560" height="130" fill="none">
  <title>ELBAKRI OVERSEAS FOR TRAVEL</title>
  <!-- Brand mark: navy "B" monogram with airplane (transparent background) -->
  <g transform="translate(16 19) scale(0.92)">
    <path d="M22 11 H51 C72 11 84 20 84 33 C84 43 76 49 62 50 C78 51 88 59 88 70 C88 83 75 89 53 89 H22 Z" fill="#07184A"/>
    <g transform="translate(53 35) rotate(-36) scale(1.55) translate(-12 -12)">
      <path d="M12 1.6c1.3 0 2.2 2.1 2.2 5.2v3.4l7.6 4.6v2.4l-7.6-2.3v4.7l2.2 2v1.5l-4.4-1.1-4.4 1.1v-1.5l2.2-2v-4.7l-7.6 2.3v-2.4l7.6-4.6v-3.4c0-3.1 0.9-5.2 2.2-5.2z" fill="#ffffff"/>
    </g>
  </g>
  <!-- Wordmark -->
  <text x="120" y="67" font-family="'Space Grotesk', Cairo, sans-serif" font-size="40" font-weight="700" letter-spacing="0.5" fill="#07184A">ELBAKRI OVERSEAS</text>
  <text x="122" y="93" font-family="'Space Grotesk', Cairo, sans-serif" font-size="14.5" font-weight="600" letter-spacing="3" fill="#5A6B86">FOR TRAVEL · EST. 1982</text>
</svg>
